<?xml version="1.0" encoding="UTF-8" standalone="no"?>
<svg
   width="729"
   height="658"
   viewBox="0 0 729 658"
   role="img"
   artist="Katerina Limpitsouni"
   source="https://undraw.co/"
   version="1.1"
   id="svg3391"
   sodipodi:docname="undraw_pipeline.svg"
   xml:space="preserve"
   inkscape:version="1.2.2 (b0a8486541, 2022-12-01)"
   xmlns:inkscape="http://www.inkscape.org/namespaces/inkscape"
   xmlns:sodipodi="http://sodipodi.sourceforge.net/DTD/sodipodi-0.dtd"
   xmlns="http://www.w3.org/2000/svg"
   xmlns:svg="http://www.w3.org/2000/svg"><defs
     id="defs3395"><rect
       x="41.774218"
       y="123.69371"
       width="252.82314"
       height="114.56334"
       id="rect3451" /><rect
       x="58.99889"
       y="176.99667"
       width="128.72485"
       height="79.112152"
       id="rect8" /><rect
       x="58.99889"
       y="176.99667"
       width="128.72485"
       height="79.112152"
       id="rect8-3" /><rect
       x="41.77422"
       y="123.69371"
       width="252.82314"
       height="114.56334"
       id="rect3451-3" /><rect
       x="41.77422"
       y="123.69371"
       width="252.82314"
       height="114.56334"
       id="rect3451-3-5" /></defs><sodipodi:namedview
     id="namedview3393"
     pagecolor="#ffffff"
     bordercolor="#000000"
     borderopacity="0.25"
     inkscape:showpageshadow="2"
     inkscape:pageopacity="0.0"
     inkscape:pagecheckerboard="0"
     inkscape:deskcolor="#d1d1d1"
     showgrid="false"
     inkscape:zoom="0.6618541"
     inkscape:cx="367.1504"
     inkscape:cy="364.88404"
     inkscape:window-width="1920"
     inkscape:window-height="1020"
     inkscape:window-x="0"
     inkscape:window-y="0"
     inkscape:window-maximized="1"
     inkscape:current-layer="svg3391" /><path
     d="M 564.57869,793.21974 H 218.73577 a 0.907725,0.907725 0 1 1 0,-1.81545 h 345.84292 a 0.907725,0.907725 0 1 1 0,1.81545 z"
     fill="#cccccc"
     id="path3365"
     style="stroke-width:0.907725" /><g
     id="g1"
     transform="matrix(7.4193601,0,0,4.9441507,-569.00045,42.863353)"
     style="stroke:#ffffff;stroke-width:2.55863;stroke-dasharray:none;stroke-opacity:1"><g
       id="g4"
       transform="matrix(0.17159574,0,0,0.19659832,78.77855,-21.16574)"
       style="fill:#000000;stroke:#ffffff;stroke-width:13.9304;stroke-dasharray:none;stroke-opacity:1"><path
         style="fill:#000000;fill-opacity:1;stroke:#ffffff;stroke-width:13.9304;stroke-dasharray:none;stroke-opacity:1"
         d="m 35.466665,414.14045 c 4.546666,-0.19995 11.986666,-0.19995 16.533332,0 4.546666,0.19994 0.826667,0.36354 -8.266666,0.36354 -9.093333,0 -12.813333,-0.1636 -8.266666,-0.36354 z m 458.666635,0 c 4.54667,-0.19995 11.98667,-0.19995 16.53334,0 4.54666,0.19994 0.82666,0.36354 -8.26667,0.36354 -9.09333,0 -12.81333,-0.1636 -8.26667,-0.36354 z M 35.466665,131.4738 c 4.546666,-0.19995 11.986666,-0.19995 16.533332,0 4.546666,0.19994 0.826667,0.36354 -8.266666,0.36354 -9.093333,0 -12.813333,-0.1636 -8.266666,-0.36354 z m 458.666635,0 c 4.54667,-0.19995 11.98667,-0.19995 16.53334,0 4.54666,0.19994 0.82666,0.36354 -8.26667,0.36354 -9.09333,0 -12.81333,-0.1636 -8.26667,-0.36354 z"
         id="path8" /><path
         style="fill:#000000;fill-opacity:1;stroke:#ffffff;stroke-width:13.9304;stroke-dasharray:none;stroke-opacity:1"
         d="m 467.06391,427.99997 c -1.32679,-1.69179 -1.28906,-1.72952 0.40273,-0.40272 1.7768,1.39346 2.34184,2.26939 1.46394,2.26939 -0.2215,0 -1.0615,-0.84 -1.86667,-1.86667 z M 86.484205,411.11109 c 0.05118,-1.24261 0.303937,-1.49536 0.644445,-0.64445 0.308128,0.77 0.270234,1.69 -0.08421,2.04445 -0.354444,0.35444 -0.606549,-0.27556 -0.560234,-1.4 z M 21.850712,273.06665 c 0,-75.38666 0.127117,-106.22666 0.282481,-68.53333 0.155365,37.69333 0.155365,99.37333 0,137.06666 -0.155364,37.69333 -0.282481,6.85333 -0.282481,-68.53333 z m 502.399968,0 c 0,-75.38666 0.12712,-106.22666 0.28248,-68.53333 0.15537,37.69333 0.15537,99.37333 0,137.06666 -0.15536,37.69333 -0.28248,6.85333 -0.28248,-68.53333 z M 86.484205,134.84444 c 0.05118,-1.24261 0.303937,-1.49536 0.644445,-0.64445 0.308128,0.77 0.270234,1.69 -0.08421,2.04445 -0.354444,0.35444 -0.606549,-0.27556 -0.560234,-1.4 z M 466.13331,119.06393 c 0,-0.2215 0.84,-1.0615 1.86666,-1.86666 1.69179,-1.3268 1.72952,-1.28907 0.40273,0.40272 -1.39346,1.7768 -2.26939,2.34185 -2.26939,1.46394 z"
         id="path7" /><path
         style="fill:#000000;fill-opacity:1;stroke:#ffffff;stroke-width:13.9304;stroke-dasharray:none;stroke-opacity:1"
         d="m 65.583923,273.06665 c 0,-74.8 0.127169,-105.39999 0.282599,-68 0.155429,37.4 0.155429,98.6 0,136 -0.15543,37.39999 -0.282599,6.8 -0.282599,-68 z"
         id="path6" /><path
         style="fill:#000000;fill-opacity:1;stroke:#ffffff;stroke-width:13.9304;stroke-dasharray:none;stroke-opacity:1"
         d="m 86.719637,403.19998 c 0,-3.22667 0.199963,-4.54667 0.444363,-2.93334 0.244399,1.61334 0.244399,4.25334 0,5.86667 -0.2444,1.61333 -0.444363,0.29333 -0.444363,-2.93333 z m 0.192922,-130.13333 c 0,-57.2 0.129239,-80.59999 0.287198,-52 0.157959,28.6 0.157959,75.4 0,104 -0.157959,28.6 -0.287198,5.2 -0.287198,-52 z M 86.719637,142.93332 c 0,-3.22666 0.199963,-4.54666 0.444363,-2.93333 0.244399,1.61333 0.244399,4.25333 0,5.86667 -0.2444,1.61333 -0.444363,0.29333 -0.444363,-2.93334 z"
         id="path5" /><path
         style="fill:#000000;fill-opacity:1;stroke:#ffffff;stroke-width:13.9304;stroke-dasharray:none;stroke-opacity:1"
         d="M 20.799999,435.09077 C 11.080917,432.71791 2.9180367,423.83663 1.0201794,413.57018 0.33419737,409.85936 0.05691319,358.33772 0.24337187,269.23308 l 0.28996143,-138.56642 2.4955774,-4.8 c 3.3293644,-6.40371 6.6859226,-9.80123 12.7397443,-12.89524 4.844827,-2.4761 5.861732,-2.57143 27.431342,-2.57143 25.101065,0 28.291736,0.72251 35.639582,8.07036 5.638216,5.63821 7.509986,10.85253 7.53699,20.99631 l 0.02343,8.8 H 273.06665 459.73331 v -6.73973 c 0,-13.74482 5.40027,-23.54137 15.80114,-28.66461 4.74062,-2.33513 6.15599,-2.46233 27.39885,-2.46233 21.56961,0 22.58652,0.0953 27.43135,2.57143 6.05382,3.09401 9.41038,6.49153 12.73974,12.89524 l 2.49558,4.8 v 142.39999 142.39999 l -2.49558,4.8 c -3.32936,6.40371 -6.68592,9.80123 -12.73974,12.89524 -4.84483,2.4761 -5.86174,2.57143 -27.43135,2.57143 -21.24286,0 -22.65823,-0.1272 -27.39885,-2.46233 -10.40087,-5.12324 -15.80114,-14.91979 -15.80114,-28.66461 v -6.73973 H 273.06665 86.399995 l -0.02343,8.8 c -0.03504,13.16459 -4.504125,20.96053 -15.299823,26.68928 -4.055012,2.1518 -6.084764,2.35778 -25.210082,2.55837 -11.439999,0.11999 -22.719999,-0.2506 -25.066665,-0.82352 z m 41.70698,-20.97379 c 3.577767,-2.38894 3.62635,-4.27865 3.62635,-141.05033 0,-136.77168 -0.04858,-138.66139 -3.62635,-141.05032 -0.645507,-0.43102 -9.213649,-0.79102 -19.040315,-0.8 -16.456622,-0.0151 -18.035029,0.15203 -19.999999,2.117 -2.111283,2.11128 -2.133333,3.55555 -2.133333,139.73332 0,136.17777 0.02205,137.62204 2.133333,139.73333 1.96497,1.96497 3.543377,2.13204 19.999999,2.11699 9.826666,-0.009 18.394808,-0.36898 19.040315,-0.79999 z m 460.159661,-1.317 c 2.11128,-2.11129 2.13333,-3.55556 2.13333,-139.73333 0,-136.17777 -0.0221,-137.62204 -2.13333,-139.73332 -1.95859,-1.95859 -3.55556,-2.13334 -19.496,-2.13334 -13.98819,0 -17.8234,0.32272 -19.73333,1.66049 l -2.37067,1.66048 v 138.54569 138.54569 l 2.37067,1.66048 c 1.90993,1.33777 5.74514,1.66049 19.73333,1.66049 15.94044,0 17.53741,-0.17475 19.496,-2.13333 z M 459.73331,273.06665 V 169.59999 H 273.06665 86.399995 V 273.06665 376.53331 H 273.06665 459.73331 Z"
         id="path4" /></g></g><rect
     style="fill:#a1a1a1;fill-opacity:1;stroke:#ffffff;stroke-width:1.94852;stroke-dasharray:none;stroke-opacity:1"
     id="rect5756"
     width="200.44769"
     height="129.58948"
     x="145.59999"
     y="138.78726" /><text
     xml:space="preserve"
     id="text3449-6"
     style="font-size:100.862px;letter-spacing:3px;white-space:pre;shape-inside:url(#rect3451-3);display:inline;fill:#060006"
     transform="matrix(0.9077242,0,0,0.9077242,183.08588,38.31173)"><tspan
       x="41.773438"
       y="215.46519"
       id="tspan8081"><tspan
         style="fill:#ffffff"
         id="tspan8079">+</tspan></tspan></text><rect
     style="fill:#a1a1a1;fill-opacity:1;stroke:#444444;stroke-width:1.94898;stroke-dasharray:1.94898, 5.84693;stroke-dashoffset:0;stroke-opacity:1"
     id="rect5756-7"
     width="200.44769"
     height="129.58948"
     x="375.37961"
     y="139.43031" /><text
     xml:space="preserve"
     id="text3449-6-3"
     style="font-size:100.862px;letter-spacing:3px;white-space:pre;shape-inside:url(#rect3451-3-5);display:inline;fill:#060006"
     transform="matrix(0.9077242,0,0,0.9077242,358.12759,32.95443)"><tspan
       x="41.773438"
       y="215.46519"
       id="tspan8085"><tspan
         style="fill:#ffffff"
         id="tspan8083">pdf</tspan></tspan></text><g
     id="g8024"
     transform="matrix(1.1444379,0,0,1.1444379,-133.58097,-99.86041)"
     style="display:inline"><path
       d="m 425.1774,470.60152 a 9.8196102,9.8196102 0 0 1 11.98873,-9.1099 l 12.98564,-18.30039 13.04578,5.17894 -18.70126,25.58614 a 9.8728314,9.8728314 0 0 1 -19.31892,-3.35482 z"
       fill="#a0616a"
       id="path3367"
       style="stroke-width:0.793162" /><g
       id="g7997"><path
         d="m 439.42244,454.86317 23.08814,-38.83086 -9.40659,-25.08411 12.81137,-34.1646 0.47247,0.20269 c 0.30979,0.13273 7.58926,3.3811 8.66813,15.01416 l 14.72258,46.27061 -39.29255,50.97425 z"
         fill="#3f3d56"
         id="path3369"
         style="stroke-width:0.793162" /><path
         d="m 314.02945,312.1088 a 9.8195785,9.8195785 0 0 1 8.15567,12.65719 l 17.2416,14.36172 -6.17209,12.60631 -24.06362,-20.6235 a 9.8728393,9.8728393 0 0 1 4.83844,-19.00172 z"
         fill="#a0616a"
         id="path3371"
         style="stroke-width:0.793162" /><path
         d="m 328.61926,327.52803 36.92954,26.02125 25.73633,-7.43897 33.0718,15.4145 -0.23862,0.45538 c -0.15625,0.29861 -3.95774,7.30513 -15.6394,7.48135 l -47.27041,11.10103 -47.7837,-43.11608 z"
         fill="#3f3d56"
         id="path3373"
         style="stroke-width:0.793162" /><polygon
         points="316.903,640.297 309.202,577.863 333.092,577.864 333.089,640.297 "
         fill="#a0616a"
         id="polygon3375"
         transform="matrix(0.7931616,0,0,0.7931616,132,136.09967)" /><path
         d="m 370.40263,640.28995 h 28.54192 v 15.58959 h -40.34961 v -3.78194 a 11.807686,11.807686 0 0 1 11.80769,-11.80765 z"
         fill="#2f2e41"
         id="path3377"
         style="stroke-width:0.793162" /><polygon
         points="381.597,640.297 373.897,577.863 397.786,577.864 397.784,640.297 "
         fill="#a0616a"
         id="polygon3379"
         transform="matrix(0.7931616,0,0,0.7931616,132,136.09967)" /><path
         d="m 421.71571,640.28995 h 28.54192 v 15.58959 h -40.34961 v -3.78194 a 11.807686,11.807686 0 0 1 11.80769,-11.80765 z"
         fill="#2f2e41"
         id="path3381"
         style="stroke-width:0.793162" /><polygon
         points="403.54,412.407 402.22,504.828 400.9,626.295 371.853,623.654 357.33,455.977 338.846,623.654 308.859,623.654 305.839,454.657 316.401,417.688 "
         fill="#2f2e41"
         id="polygon3383"
         transform="matrix(0.7931616,0,0,0.7931616,132,136.09967)" /><path
         d="m 380.66079,467.84132 -3.50974,-0.1519 16.30243,-89.80751 -6.67498,-27.14461 a 5.9404472,5.9404472 0 0 1 3.68178,-6.97879 l 12.00994,-4.50333 4.2429,-11.66853 33.4765,3.6073 0.82322,9.11924 c 3.62763,1.16344 33.50069,11.11219 31.4395,22.44816 -2.03436,11.18886 -14.04621,46.39089 -14.65621,48.17487 l -2.1036,50.48406 -0.25876,0.12937 c -0.31147,0.15574 -23.38568,11.50129 -48.45304,11.49937 -8.82746,-4.6e-4 -17.90721,-1.40829 -26.31994,-5.2077 z"
         fill="#3f3d56"
         id="path3385"
         style="stroke-width:0.793162" /><circle
         cx="-58.742645"
         cy="513.20746"
         r="24.103237"
         transform="rotate(-61.33681)"
         fill="#a0616a"
         id="circle3387"
         style="stroke-width:0.793162" /><path
         d="m 441.66301,321.04155 c -4.5935,4.89306 -13.12426,2.26635 -13.7228,-4.41827 a 8.0756938,8.0756938 0 0 1 0.0102,-1.55961 c 0.30904,-2.961 2.01968,-5.64923 1.60992,-8.77563 a 4.6020267,4.6020267 0 0 0 -0.84223,-2.15432 c -3.66044,-4.90164 -12.25303,2.19238 -15.70762,-2.24493 -2.11829,-2.72085 0.37173,-7.0047 -1.2538,-10.04573 -2.14545,-4.01365 -8.50015,-2.0337 -12.48522,-4.23177 -4.43388,-2.44562 -4.16869,-9.24846 -1.25003,-13.3863 3.55946,-5.04626 9.80031,-7.73894 15.96344,-8.12701 6.16312,-0.38807 12.28375,1.27796 18.03757,3.52029 6.53749,2.54774 13.02036,6.06874 17.04346,11.81719 4.89249,6.99072 5.36335,16.3891 2.91649,24.56342 -1.48842,4.97251 -6.56826,11.04696 -10.31934,15.04267 z"
         fill="#2f2e41"
         id="path3389"
         style="stroke-width:0.793162" /></g></g></svg>
